<?xml version="1.0" encoding="UTF-8"?>
<svg id="Layer_1" data-name="Layer 1" xmlns="http://www.w3.org/2000/svg" viewBox="0 0 244.3 256.15">
  <defs>
    <style>
      .cls-1 {
        fill: #866f9b;
      }

      .cls-2 {
        fill: #333;
      }
    </style>
  </defs>
  <g>
    <path class="cls-1" d="M116.02,169.63c-15.18-.96-27.93-6.44-38.24-16.5-11.39-11.11-17.08-24.96-17.08-41.57,0-10.99,2.55-20.88,7.64-29.67,5.09-8.8,12.27-15.8,21.52-21.02,8.1-4.56,16.82-7.13,26.16-7.7v-13.47c-19.35,.78-35.58,7.56-48.7,20.34-13.98,13.61-20.97,30.38-20.97,50.32s5.77,35.12,17.31,48.51c12.98,14.96,30.43,22.86,52.36,23.71v-12.95Z"/>
    <path class="cls-1" d="M177.61,116.11c-.96,14.6-6.59,26.94-16.92,37.02-7.35,7.17-15.95,12-25.78,14.54V39.71h-14.28V182.58h1.81c21.92-.85,39.38-8.75,52.36-23.71,10.36-12.01,16.05-26.27,17.11-42.76h-14.32Z"/>
  </g>
  <g>
    <path class="cls-2" d="M65.58,201.27l-2.27,1.74c-1.25-1.63-2.75-2.86-4.5-3.7s-3.67-1.26-5.77-1.26c-2.29,0-4.41,.55-6.37,1.65s-3.47,2.58-4.54,4.43-1.61,3.94-1.61,6.26c0,3.5,1.2,6.43,3.6,8.77s5.43,3.52,9.09,3.52c4.02,0,7.39-1.58,10.1-4.73l2.27,1.72c-1.43,1.82-3.22,3.23-5.36,4.23s-4.53,1.49-7.18,1.49c-5.03,0-8.99-1.67-11.89-5.02-2.43-2.83-3.65-6.24-3.65-10.23,0-4.21,1.47-7.74,4.42-10.62s6.64-4.31,11.08-4.31c2.68,0,5.1,.53,7.27,1.59s3.93,2.55,5.31,4.46Z"/>
    <path class="cls-2" d="M77.68,203.12l10.05,21.55h-2.33l-3.39-7.09h-9.28l-3.36,7.09h-2.4l10.18-21.55h.53Zm-.27,4.58l-3.69,7.8h7.37l-3.67-7.8Z"/>
    <path class="cls-2" d="M85.29,205.23v-2.11h11.81v2.11h-4.8v19.44h-2.2v-19.44h-4.8Z"/>
    <path class="cls-2" d="M98.98,203.12h2.15v9.04h10.97v-9.04h2.15v21.55h-2.15v-10.4h-10.97v10.4h-2.15v-21.55Z"/>
    <path class="cls-2" d="M116.6,203.12h2.48l5.51,8.89,5.43-8.89h2.49l-6.83,11.25v10.3h-2.12v-10.3l-6.96-11.25Z"/>
    <path class="cls-2" d="M145.2,195.94h2.87v25.96h11.05v2.77h-13.93v-28.73Z"/>
    <path class="cls-2" d="M170.01,203.12l10.05,21.55h-2.33l-3.39-7.09h-9.28l-3.36,7.09h-2.4l10.18-21.55h.53Zm-.27,4.58l-3.69,7.8h7.37l-3.67-7.8Z"/>
    <path class="cls-2" d="M181.22,224.67l3.08-21.55h.35l8.76,17.68,8.67-17.68h.35l3.1,21.55h-2.11l-2.13-15.41-7.62,15.41h-.55l-7.71-15.53-2.12,15.53h-2.08Z"/>
  </g>
</svg>